# xmcd
# Track frame offsets:
# 150
# 12102
# 31102
# 49898
# 69566
# 82795
# 93785
# 103968
# 113949
# 124908
# 135505
# 147896
#
# Disc length: 2090 seconds
# Revision: 0
# Processed by: cddbd v1.4PL0 Copyright (c) Steve Scherf et al.
# Submitted via: VisiTrax 2.9.5.180 - For more info visit www.synapsa.com
#
DISCID=9808280c
DTITLE=Mike Haduck - The western album
DYEAR=1999
DGENRE=
TTITLE0=Oklahoma in your mind
TTITLE1=Ghost riders in the sk
TTITLE2=A wrangler
TTITLE3=El Paso
TTITLE4=The cause
TTITLE5=Oh Suzannah
TTITLE6=Indian Joe
TTITLE7=A cowboys dream
TTITLE8=Lonesome whistle
TTITLE9=Old Mexico
TTITLE10=Red River Valley
TTITLE11=If ou don't leave me alone
EXTD=
EXTT0=
EXTT1=
EXTT2=
EXTT3=
EXTT4=
EXTT5=
EXTT6=
EXTT7=
EXTT8=
EXTT9=
EXTT10=
EXTT11=
PLAYORDER=
